<svg width="148" height="18" viewBox="0 0 148 18" fill="none" xmlns="http://www.w3.org/2000/svg">
<line x1="148" y1="9.5" x2="116" y2="9.5" stroke="#3C3CB4"/>
<path d="M53.46 5.512L54.24 6.196L53.592 6.928L52.824 6.268L53.46 5.512ZM54.384 6.82L55.2 7.528L54.516 8.296L53.712 7.612L54.384 6.82ZM52.728 6.88L53.544 7.588L52.86 8.356L52.056 7.672L52.728 6.88ZM52.812 13.132C52.012 13.132 51.336 13.068 50.784 12.94C50.24 12.812 49.824 12.628 49.536 12.388C49.256 12.14 49.06 11.876 48.948 11.596C48.836 11.308 48.78 10.968 48.78 10.576C48.78 9.952 48.924 9.208 49.212 8.344L50.196 8.548C50.028 9.204 49.944 9.74 49.944 10.156C49.944 10.532 50.016 10.836 50.16 11.068C50.304 11.292 50.612 11.48 51.084 11.632C51.556 11.776 52.22 11.848 53.076 11.848C54.54 11.848 55.78 11.64 56.796 11.224L56.796 11.044C56.796 10.3 56.684 9.444 56.46 8.476L57.612 8.236C57.82 9.084 57.924 9.864 57.924 10.576C57.924 11.2 57.844 11.716 57.684 12.124C57.204 12.428 56.536 12.672 55.68 12.856C54.832 13.04 53.876 13.132 52.812 13.132ZM64.5728 13C63.9328 13 63.4608 12.816 63.1568 12.448C62.3568 12.896 61.4128 13.12 60.3248 13.12C59.7728 13.12 59.2848 13.088 58.8608 13.024L58.8608 11.764C59.4208 11.804 59.9088 11.824 60.3248 11.824C61.2608 11.824 62.0288 11.708 62.6288 11.476L62.4128 10.924C62.0208 9.916 61.4368 8.956 60.6608 8.044L61.4768 7.24C62.1888 8.016 62.8208 9.08 63.3728 10.432C63.5888 10.984 63.7728 11.34 63.9248 11.5C64.0848 11.652 64.3488 11.728 64.7168 11.728L64.8248 11.728L64.8248 13L64.5728 13ZM64.8281 13C64.7321 13 64.6561 12.94 64.6001 12.82C64.5361 12.692 64.5041 12.54 64.5041 12.364C64.5041 12.188 64.5361 12.04 64.6001 11.92C64.6561 11.792 64.7321 11.728 64.8281 11.728L65.1761 11.728C67.1521 11.728 68.8921 11.572 70.3961 11.26C69.6201 10.548 68.9801 10.012 68.4761 9.652C67.9801 9.292 67.5881 9.112 67.3001 9.112C67.1001 9.112 66.9321 9.16 66.7961 9.256C66.6681 9.344 66.5321 9.516 66.3881 9.772L65.5841 9.46C65.7841 8.932 66.0241 8.552 66.3041 8.32C66.5921 8.088 66.9401 7.972 67.3481 7.972C67.5961 7.972 67.8561 8.028 68.1281 8.14C68.4001 8.252 68.7041 8.432 69.0401 8.68C69.3761 8.928 69.6681 9.16 69.9161 9.376C70.1641 9.584 70.5001 9.88 70.9241 10.264C71.0841 10.416 71.2081 10.528 71.2961 10.6C71.8321 11.088 72.2481 11.4 72.5441 11.536C72.8481 11.664 73.2561 11.728 73.7681 11.728L73.9481 11.728L73.9481 13L73.6841 13C73.1961 13 72.7841 12.94 72.4481 12.82C72.1121 12.692 71.7521 12.472 71.3681 12.16C69.3761 12.72 67.2481 13 64.9841 13L64.8281 13ZM73.9453 13C73.8493 13 73.7733 12.94 73.7173 12.82C73.6533 12.692 73.6213 12.54 73.6213 12.364C73.6213 12.188 73.6533 12.04 73.7173 11.92C73.7733 11.792 73.8493 11.728 73.9453 11.728L74.0413 11.728C74.6013 11.728 75.1093 11.668 75.5653 11.548C75.6213 10.892 75.6493 10.132 75.6493 9.268C75.6493 8.212 75.6333 6.592 75.6013 4.408L76.7413 4.312C76.7653 6.44 76.7773 7.996 76.7773 8.98C76.7773 9.964 76.7613 10.692 76.7293 11.164C76.6973 11.636 76.6213 12.076 76.5013 12.484C76.2373 12.628 75.8693 12.752 75.3973 12.856C74.9333 12.952 74.4773 13 74.0293 13L73.9453 13ZM79.6407 13L78.5127 13L78.5127 4.408L79.6407 4.312L79.6407 13ZM87.6763 7.924L88.5643 8.704L87.8203 9.532L86.9443 8.788L87.6763 7.924ZM87.3163 15.748C86.2763 15.748 85.4803 15.496 84.9283 14.992C84.3763 14.488 84.1003 13.788 84.1003 12.892C84.1003 11.948 84.3443 10.996 84.8323 10.036L85.7443 10.396C85.4083 11.148 85.2403 11.86 85.2403 12.532C85.2403 13.828 86.0043 14.476 87.5323 14.476C88.3723 14.476 89.0363 14.288 89.5243 13.912C90.0203 13.536 90.2683 13.032 90.2683 12.4C90.2683 11.584 90.0923 10.624 89.7403 9.52L90.8563 9.172C91.1283 10.124 91.2883 10.888 91.3363 11.464C91.6883 11.64 92.0843 11.728 92.5243 11.728L92.6323 11.728L92.6323 13L92.4283 13C92.0123 13 91.6443 12.94 91.3243 12.82C91.1963 13.74 90.7883 14.456 90.1003 14.968C89.4203 15.488 88.4923 15.748 87.3163 15.748ZM92.6367 13C92.5407 13 92.4647 12.94 92.4087 12.82C92.3447 12.692 92.3127 12.54 92.3127 12.364C92.3127 12.188 92.3447 12.04 92.4087 11.92C92.4647 11.792 92.5407 11.728 92.6367 11.728L92.8647 11.728C93.4567 11.728 93.9647 11.708 94.3887 11.668C93.7647 11.188 93.4527 10.56 93.4527 9.784C93.4527 9.056 93.6647 8.48 94.0887 8.056C94.5207 7.632 95.0727 7.42 95.7447 7.42C96.3927 7.42 97.0767 7.588 97.7967 7.924L97.4727 8.896C96.9047 8.672 96.3967 8.56 95.9487 8.56C95.5487 8.56 95.2127 8.68 94.9407 8.92C94.6767 9.152 94.5447 9.464 94.5447 9.856C94.5447 10.312 94.6967 10.696 95.0007 11.008C95.3127 11.312 95.6287 11.464 95.9487 11.464C96.2527 11.464 97.0527 11.268 98.3487 10.876L98.6127 11.956C97.5247 12.34 96.5447 12.612 95.6727 12.772C94.8087 12.924 93.8487 13 92.7927 13L92.6367 13Z" fill="white"/>
<line x1="32" y1="9.5" y2="9.5" stroke="#3C3CB4"/>
</svg>
