<svg width="158" height="18" viewBox="0 0 158 18" fill="none" xmlns="http://www.w3.org/2000/svg">
<line x1="157.5" y1="9.5" x2="125.5" y2="9.5" stroke="#3C3CB4"/>
<path d="M52.208 11.728L52.208 13L51.8 13C50.896 13 50.264 12.756 49.904 12.268C49.544 11.78 49.364 11.056 49.364 10.096L49.364 4.408L50.504 4.312L50.504 9.892C50.504 10.564 50.628 11.04 50.876 11.32C51.124 11.592 51.52 11.728 52.064 11.728L52.208 11.728ZM53.3311 6.328L54.2191 7.108L53.4751 7.936L52.5991 7.192L53.3311 6.328ZM52.2031 13C52.1071 13 52.0311 12.94 51.9751 12.82C51.9111 12.692 51.8791 12.54 51.8791 12.364C51.8791 12.188 51.9111 12.04 51.9751 11.92C52.0311 11.792 52.1071 11.728 52.2031 11.728L52.3951 11.728C53.1711 11.728 53.6791 11.616 53.9191 11.392C54.1671 11.168 54.2911 10.832 54.2911 10.384L54.2911 8.788L55.3711 8.704L55.3711 10.276C55.3711 10.74 55.3271 11.12 55.2391 11.416C55.6791 11.624 56.2791 11.728 57.0391 11.728L57.1231 11.728L57.1231 13L56.8831 13C55.9391 13 55.1991 12.796 54.6631 12.388C54.2071 12.796 53.4791 13 52.4791 13L52.2031 13ZM60.965 8.608C60.461 8.608 59.897 8.668 59.273 8.788C59.681 9.748 60.301 10.484 61.133 10.996C61.893 10.508 62.493 9.82 62.933 8.932C62.277 8.716 61.621 8.608 60.965 8.608ZM57.125 13C57.029 13 56.953 12.94 56.897 12.82C56.833 12.692 56.801 12.54 56.801 12.364C56.801 12.188 56.833 12.04 56.897 11.92C56.953 11.792 57.029 11.728 57.125 11.728L57.401 11.728C58.353 11.728 59.221 11.6 60.005 11.344C59.501 10.952 59.069 10.46 58.709 9.868C58.349 9.276 58.145 8.648 58.097 7.984C59.001 7.696 59.993 7.552 61.073 7.552C62.281 7.552 63.289 7.76 64.097 8.176C64.001 8.736 63.785 9.3 63.449 9.868C63.113 10.436 62.669 10.94 62.117 11.38C62.837 11.612 63.629 11.728 64.493 11.728L65.141 11.728L65.141 13L64.505 13C63.161 13 62.009 12.716 61.049 12.148C59.985 12.716 58.773 13 57.413 13L57.125 13ZM69.8326 11.848C70.1126 11.848 70.3686 11.832 70.6006 11.8C70.6486 11.512 70.6726 11.264 70.6726 11.056C70.6726 10.528 70.5646 10.1 70.3486 9.772C70.1326 9.444 69.8326 9.28 69.4486 9.28C69.1366 9.28 68.8606 9.388 68.6206 9.604C68.3886 9.82 68.1166 10.236 67.8046 10.852L67.5286 11.38C68.1526 11.692 68.9206 11.848 69.8326 11.848ZM69.6166 13.012C68.4966 13.012 67.5806 12.784 66.8686 12.328C66.4446 12.776 65.9046 13 65.2486 13L65.1406 13C65.0446 13 64.9686 12.94 64.9126 12.82C64.8486 12.692 64.8166 12.54 64.8166 12.364C64.8166 12.188 64.8486 12.04 64.9126 11.92C64.9686 11.792 65.0446 11.728 65.1406 11.728L65.3086 11.728C65.7246 11.728 66.0446 11.6 66.2686 11.344C66.5006 11.08 66.7806 10.616 67.1086 9.952C67.4286 9.336 67.7606 8.88 68.1046 8.584C68.4486 8.288 68.9086 8.14 69.4846 8.14C70.1566 8.14 70.6886 8.404 71.0806 8.932C71.4806 9.452 71.6806 10.104 71.6806 10.888C71.6806 11.576 71.5606 12.212 71.3206 12.796C70.8886 12.94 70.3206 13.012 69.6166 13.012ZM78.9284 15.496C77.9604 15.496 77.2164 15.248 76.6964 14.752C76.1844 14.264 75.9284 13.572 75.9284 12.676C75.9284 11.804 76.1764 10.86 76.6724 9.844L77.5964 10.216C77.2604 11.04 77.0924 11.76 77.0924 12.376C77.0924 13.608 77.7724 14.224 79.1324 14.224C79.8844 14.224 80.4804 14.024 80.9204 13.624C81.3604 13.232 81.5804 12.724 81.5804 12.1C81.5804 11.532 81.5484 8.968 81.4844 4.408L82.5884 4.312L82.6724 9.964C82.6804 10.676 82.8084 11.148 83.0564 11.38C83.3044 11.612 83.7484 11.728 84.3884 11.728L84.4964 11.728L84.4964 13L84.1964 13C83.4764 13 82.9444 12.828 82.6004 12.484C82.5044 13.428 82.1404 14.164 81.5084 14.692C80.8764 15.228 80.0164 15.496 78.9284 15.496ZM91.16 11.752C92.384 11.752 93.408 11.624 94.232 11.368L94.232 11.128C94.232 10.424 94.076 9.896 93.764 9.544C93.452 9.184 93.024 9.004 92.48 9.004C91.848 9.004 91.264 9.196 90.728 9.58C90.192 9.964 89.584 10.628 88.904 11.572C89.504 11.692 90.256 11.752 91.16 11.752ZM90.908 13.036C89.964 13.036 89.2 12.972 88.616 12.844C88.032 12.716 87.484 12.528 86.972 12.28C86.548 12.76 85.804 13 84.74 13L84.5 13C84.404 13 84.328 12.94 84.272 12.82C84.208 12.692 84.176 12.54 84.176 12.364C84.176 12.188 84.208 12.04 84.272 11.92C84.328 11.792 84.404 11.728 84.5 11.728L84.752 11.728C85.456 11.728 85.912 11.616 86.12 11.392C86.336 11.168 86.444 10.832 86.444 10.384L86.444 8.788L87.524 8.704L87.524 10.168C87.524 10.536 87.5 10.864 87.452 11.152C87.54 11.192 87.68 11.244 87.872 11.308C88.624 10.076 89.388 9.184 90.164 8.632C90.94 8.08 91.772 7.804 92.66 7.804C93.468 7.804 94.104 8.064 94.568 8.584C95.032 9.096 95.264 9.772 95.264 10.612C95.264 11.196 95.172 11.764 94.988 12.316C94.092 12.796 92.732 13.036 90.908 13.036ZM98.047 13L96.919 13L96.919 4.408L98.047 4.312L98.047 13ZM102.334 11.728L103.414 11.728C103.414 11.04 103.27 10.428 102.982 9.892C102.702 9.348 102.326 9.076 101.854 9.076C101.446 9.076 101.134 9.232 100.918 9.544C100.702 9.848 100.594 10.188 100.594 10.564C100.594 10.948 100.722 11.24 100.978 11.44C101.234 11.632 101.686 11.728 102.334 11.728ZM100.81 15.64C100.362 15.64 99.9298 15.584 99.5138 15.472L99.6338 14.416C99.9538 14.48 100.306 14.512 100.69 14.512C101.49 14.512 102.102 14.344 102.526 14.008C102.958 13.672 103.222 13.284 103.318 12.844C102.838 12.876 102.41 12.892 102.034 12.892C101.13 12.892 100.498 12.704 100.138 12.328C99.7858 11.944 99.6098 11.416 99.6098 10.744C99.6098 9.944 99.8218 9.276 100.246 8.74C100.678 8.204 101.23 7.936 101.902 7.936C102.654 7.936 103.262 8.276 103.726 8.956C104.19 9.636 104.422 10.56 104.422 11.728L105.226 11.728L105.226 13L104.29 13C104.106 13.856 103.718 14.508 103.126 14.956C102.542 15.412 101.77 15.64 100.81 15.64ZM107.246 6.16L108.074 6.892L107.378 7.66L106.562 6.964L107.246 6.16ZM105.59 6.196L106.418 6.928L105.722 7.696L104.906 7L105.59 6.196ZM105.23 13C105.134 13 105.058 12.94 105.002 12.82C104.938 12.692 104.906 12.54 104.906 12.364C104.906 12.188 104.938 12.04 105.002 11.92C105.058 11.792 105.134 11.728 105.23 11.728L105.29 11.728C106.058 11.728 106.686 11.628 107.174 11.428C107.182 11.364 107.186 11.272 107.186 11.152C107.186 10.28 107.074 9.42 106.85 8.572L107.906 8.32C108.098 9.104 108.194 9.888 108.194 10.672C108.194 11.336 108.126 11.896 107.99 12.352C107.262 12.784 106.358 13 105.278 13L105.23 13Z" fill="white"/>
<line x1="32.5" y1="9.5" x2="0.5" y2="9.5" stroke="#3C3CB4"/>
</svg>
