<svg width="176" height="18" viewBox="0 0 176 18" fill="none" xmlns="http://www.w3.org/2000/svg">
<line x1="176" y1="9.5" x2="144" y2="9.5" stroke="#3C3CB4"/>
<path d="M51.756 5.176L52.584 5.908L51.888 6.676L51.072 5.98L51.756 5.176ZM50.1 5.212L50.928 5.944L50.232 6.712L49.416 6.016L50.1 5.212ZM50.472 7.348C52.432 8.284 53.412 9.468 53.412 10.9C53.412 11.54 53.188 12.068 52.74 12.484C52.3 12.9 51.644 13.108 50.772 13.108C50.076 13.108 49.536 12.936 49.152 12.592C48.768 12.24 48.576 11.748 48.576 11.116C48.576 9.924 49.208 8.668 50.472 7.348ZM50.904 11.848C51.352 11.848 51.72 11.772 52.008 11.62C52.296 11.46 52.44 11.244 52.44 10.972C52.44 10.604 52.264 10.204 51.912 9.772C51.56 9.34 51.14 8.984 50.652 8.704C50.308 9.056 50.04 9.416 49.848 9.784C49.664 10.144 49.572 10.464 49.572 10.744C49.572 11.48 50.016 11.848 50.904 11.848ZM57.085 11.644C57.085 12.868 56.813 13.832 56.269 14.536C55.725 15.248 54.953 15.604 53.953 15.604C53.641 15.604 53.309 15.568 52.957 15.496L53.077 14.428C53.269 14.468 53.485 14.488 53.725 14.488C54.133 14.488 54.489 14.408 54.793 14.248C55.097 14.096 55.333 13.884 55.501 13.612C55.677 13.348 55.805 13.06 55.885 12.748C55.973 12.436 56.017 12.1 56.017 11.74C56.017 11.116 55.865 10.22 55.561 9.052L56.713 8.728C56.961 9.736 57.085 10.708 57.085 11.644ZM57.9023 15.604C57.5903 15.604 57.2583 15.568 56.9063 15.496L57.0263 14.428C57.2183 14.468 57.4343 14.488 57.6743 14.488C58.2183 14.488 58.6743 14.348 59.0423 14.068C59.4103 13.796 59.6663 13.46 59.8103 13.06C59.9623 12.66 60.0383 12.22 60.0383 11.74C60.0383 11.212 59.8743 10.312 59.5463 9.04L60.5903 8.728C60.8623 9.8 61.0543 10.46 61.1663 10.708C61.3983 11.388 61.9383 11.728 62.7863 11.728L63.0983 11.728L63.0983 13L62.6663 13C61.9303 13 61.3743 12.792 60.9983 12.376C60.9023 13.376 60.5863 14.164 60.0503 14.74C59.5143 15.316 58.7983 15.604 57.9023 15.604ZM63.0938 13C62.9978 13 62.9218 12.94 62.8658 12.82C62.8018 12.692 62.7698 12.54 62.7698 12.364C62.7698 12.188 62.8018 12.04 62.8658 11.92C62.9218 11.792 62.9978 11.728 63.0938 11.728L63.3218 11.728C64.7778 11.728 65.9098 11.56 66.7178 11.224C66.5498 10.936 66.3898 10.688 66.2378 10.48C66.0858 10.264 65.8818 10.012 65.6258 9.724C65.3778 9.436 65.0738 9.16 64.7138 8.896C64.3618 8.624 63.9618 8.368 63.5138 8.128L63.5138 6.7C64.9938 5.572 66.6938 4.748 68.6138 4.228L68.6138 5.428C67.1258 5.828 65.7498 6.472 64.4858 7.36C64.9338 7.624 65.3298 7.896 65.6738 8.176C66.0258 8.456 66.3378 8.764 66.6098 9.1C66.8818 9.428 67.0738 9.672 67.1858 9.832C67.2978 9.992 67.4618 10.244 67.6778 10.588C67.7178 10.644 67.7738 10.736 67.8458 10.864C67.9258 10.984 67.9818 11.068 68.0138 11.116C68.0458 11.164 68.0938 11.232 68.1578 11.32C68.2298 11.4 68.2898 11.46 68.3378 11.5C68.3938 11.532 68.4618 11.572 68.5418 11.62C68.6218 11.66 68.7058 11.688 68.7938 11.704C68.8818 11.72 68.9818 11.728 69.0938 11.728L69.2498 11.728L69.2498 13L69.0578 13C68.3058 13 67.7378 12.748 67.3538 12.244C66.3698 12.748 65.0418 13 63.3698 13L63.0938 13ZM71.5141 6.34L72.3421 7.072L71.6461 7.84L70.8301 7.144L71.5141 6.34ZM69.8581 6.376L70.6861 7.108L69.9901 7.876L69.1741 7.18L69.8581 6.376ZM69.2461 13C69.1501 13 69.0741 12.94 69.0181 12.82C68.9541 12.692 68.9221 12.54 68.9221 12.364C68.9221 12.188 68.9541 12.04 69.0181 11.92C69.0741 11.792 69.1501 11.728 69.2461 11.728L69.4381 11.728C70.2141 11.728 70.7221 11.616 70.9621 11.392C71.2101 11.168 71.3341 10.832 71.3341 10.384L71.3341 8.788L72.4141 8.704L72.4141 10.276C72.4141 10.74 72.3701 11.12 72.2821 11.416C72.7221 11.624 73.3221 11.728 74.0821 11.728L74.1661 11.728L74.1661 13L73.9261 13C72.9821 13 72.2421 12.796 71.7061 12.388C71.2501 12.796 70.5221 13 69.5221 13L69.2461 13ZM78.476 11.836C79.044 11.836 79.516 11.736 79.892 11.536L79.88 11.5C79.688 10.676 79.496 10.1 79.304 9.772C79.112 9.444 78.828 9.28 78.452 9.28C78.14 9.28 77.868 9.388 77.636 9.604C77.412 9.82 77.144 10.236 76.832 10.852L76.532 11.416C77.14 11.696 77.788 11.836 78.476 11.836ZM81.908 13C81.22 13 80.708 12.832 80.372 12.496C79.812 12.84 79.14 13.012 78.356 13.012C77.388 13.012 76.56 12.792 75.872 12.352C75.464 12.784 74.932 13 74.276 13L74.168 13C74.072 13 73.996 12.94 73.94 12.82C73.876 12.692 73.844 12.54 73.844 12.364C73.844 12.188 73.876 12.04 73.94 11.92C73.996 11.792 74.072 11.728 74.168 11.728L74.336 11.728C74.744 11.728 75.064 11.6 75.296 11.344C75.528 11.088 75.812 10.624 76.148 9.952C76.468 9.336 76.796 8.88 77.132 8.584C77.476 8.28 77.936 8.128 78.512 8.128C79.096 8.128 79.556 8.336 79.892 8.752C80.228 9.16 80.496 9.776 80.696 10.6C80.8 11.056 80.936 11.36 81.104 11.512C81.272 11.656 81.556 11.728 81.956 11.728L82.244 11.728L82.244 13L81.908 13ZM82.2422 13C82.1462 13 82.0702 12.94 82.0142 12.82C81.9502 12.692 81.9182 12.54 81.9182 12.364C81.9182 12.188 81.9502 12.04 82.0142 11.92C82.0702 11.792 82.1462 11.728 82.2422 11.728L82.3382 11.728C82.8982 11.728 83.4062 11.668 83.8622 11.548C83.9182 10.892 83.9462 10.132 83.9462 9.268C83.9462 8.212 83.9302 6.592 83.8982 4.408L85.0382 4.312C85.0622 6.44 85.0742 7.996 85.0742 8.98C85.0742 9.964 85.0582 10.692 85.0262 11.164C84.9942 11.636 84.9182 12.076 84.7982 12.484C84.5342 12.628 84.1662 12.752 83.6942 12.856C83.2302 12.952 82.7742 13 82.3262 13L82.2422 13ZM87.9376 13L86.8096 13L86.8096 4.408L87.9376 4.312L87.9376 13ZM96.1772 4.768L97.0052 5.5L96.3092 6.268L95.4932 5.572L96.1772 4.768ZM94.5212 4.804L95.3492 5.536L94.6532 6.304L93.8372 5.608L94.5212 4.804ZM98.4332 13L97.9532 13C97.0252 13 96.4212 12.68 96.1412 12.04C95.7012 12.088 95.2892 12.112 94.9052 12.112C94.1052 12.112 93.4772 11.98 93.0212 11.716C92.5652 11.444 92.3372 11.036 92.3372 10.492C92.3372 9.5 92.7892 8.696 93.6932 8.08C94.6052 7.456 95.6932 7.144 96.9572 7.144L96.9572 10.624C96.9572 11.032 97.0532 11.32 97.2452 11.488C97.4372 11.648 97.7812 11.728 98.2772 11.728L98.4332 11.728L98.4332 13ZM95.1212 10.996C95.3772 10.996 95.6492 10.984 95.9372 10.96L95.9372 10.756L95.9372 8.356C95.1532 8.428 94.5172 8.656 94.0292 9.04C93.5412 9.424 93.2972 9.812 93.2972 10.204C93.2972 10.444 93.4492 10.636 93.7532 10.78C94.0652 10.924 94.5212 10.996 95.1212 10.996ZM98.4375 13C98.3415 13 98.2655 12.94 98.2095 12.82C98.1455 12.692 98.1135 12.54 98.1135 12.364C98.1135 12.188 98.1455 12.04 98.2095 11.92C98.2655 11.792 98.3415 11.728 98.4375 11.728L98.6655 11.728C99.0175 11.728 99.2975 11.696 99.5055 11.632C99.7215 11.56 99.8775 11.44 99.9735 11.272C100.07 11.104 100.13 10.94 100.154 10.78C100.178 10.62 100.19 10.392 100.19 10.096L100.19 4.408L101.318 4.312L101.318 9.964C101.318 10.596 101.45 11.048 101.714 11.32C101.978 11.592 102.422 11.728 103.046 11.728L103.154 11.728L103.154 13L102.854 13C101.918 13 101.242 12.704 100.826 12.112C100.458 12.704 99.7055 13 98.5695 13L98.4375 13ZM106.196 7.648C105.38 7.792 104.528 8.032 103.64 8.368L103.448 7.792C103.832 7.632 104.1 7.528 104.252 7.48C103.908 7.256 103.736 6.932 103.736 6.508C103.736 6.148 103.848 5.872 104.072 5.68C104.296 5.48 104.576 5.38 104.912 5.38C105.24 5.38 105.552 5.456 105.848 5.608L105.632 6.16C105.392 6.072 105.168 6.028 104.96 6.028C104.776 6.028 104.624 6.076 104.504 6.172C104.392 6.26 104.336 6.384 104.336 6.544C104.336 6.72 104.404 6.872 104.54 7C104.676 7.128 104.864 7.192 105.104 7.192C105.168 7.192 105.492 7.14 106.076 7.036L106.196 7.648ZM103.148 13C103.052 13 102.976 12.94 102.92 12.82C102.856 12.692 102.824 12.54 102.824 12.364C102.824 12.188 102.856 12.04 102.92 11.92C102.976 11.792 103.052 11.728 103.148 11.728L103.34 11.728C104.116 11.728 104.624 11.616 104.864 11.392C105.112 11.168 105.236 10.832 105.236 10.384L105.236 8.788L106.316 8.704L106.316 10.276C106.316 10.74 106.272 11.12 106.184 11.416C106.624 11.624 107.224 11.728 107.984 11.728L108.068 11.728L108.068 13L107.828 13C106.884 13 106.144 12.796 105.608 12.388C105.152 12.796 104.424 13 103.424 13L103.148 13ZM115.318 13.012C114.566 13.012 114.034 12.764 113.722 12.268C113.354 12.804 112.682 13.072 111.706 13.072C110.922 13.072 110.29 12.888 109.81 12.52C109.41 12.84 108.878 13 108.214 13L108.07 13C107.974 13 107.898 12.94 107.842 12.82C107.778 12.692 107.746 12.54 107.746 12.364C107.746 12.188 107.778 12.04 107.842 11.92C107.898 11.792 107.974 11.728 108.07 11.728L108.406 11.728C108.806 11.728 109.106 11.64 109.306 11.464C109.506 11.28 109.622 10.94 109.654 10.444L109.726 9.532L110.746 9.436L110.686 10.516C110.662 10.876 110.61 11.18 110.53 11.428C110.866 11.636 111.278 11.74 111.766 11.74C112.182 11.74 112.534 11.644 112.822 11.452C113.11 11.26 113.254 10.972 113.254 10.588L113.254 9.292L114.286 9.22L114.286 10.648C114.286 11.368 114.654 11.728 115.39 11.728C115.79 11.728 116.178 11.64 116.554 11.464L116.554 11.308C116.554 10.66 116.442 9.88 116.218 8.968L117.286 8.716C117.462 9.42 117.55 10.096 117.55 10.744C117.55 11.432 117.478 12.004 117.334 12.46C116.662 12.828 115.99 13.012 115.318 13.012ZM120.372 13.024C119.612 13.024 118.956 12.932 118.404 12.748L118.404 11.572C118.82 11.66 119.328 11.716 119.928 11.74C119.944 11.636 119.952 11.476 119.952 11.26C119.952 9.66 119.376 7.812 118.224 5.716L119.28 5.104C120.368 7.2 120.912 9.156 120.912 10.972C120.912 11.132 120.904 11.38 120.888 11.716C121.608 11.644 122.22 11.464 122.724 11.176C122.836 10.752 122.892 10.18 122.892 9.46C122.892 8.892 122.864 7.208 122.808 4.408L123.924 4.312C123.964 6.656 123.984 8.24 123.984 9.064C123.984 10.232 123.84 11.22 123.552 12.028C122.6 12.692 121.54 13.024 120.372 13.024ZM126.867 13L125.739 13L125.739 4.408L126.867 4.312L126.867 13Z" fill="white"/>
<line x1="32" y1="9.5" y2="9.5" stroke="#3C3CB4"/>
</svg>
